# xmcd
#
# Track frame offsets: 
#        150
#        15742
#        31450
#        45861
#        61203
#        77644
#        91916
#        107135
#        126143
#        139996
#        154137
#        168453
#
# Disc length: 2513 seconds
#
# Revision: 0
# Processed by: cddbd v1.5.2PL0 Copyright (c) Steve Scherf et al.
# Submitted via: ExactAudioCopy v1.3
#
DISCID=9309cf0c
DTITLE=Young Boy - Other Summers
DYEAR=2014
DGENRE=Country
TTITLE0=Chasing Sun
TTITLE1=Rides Away
TTITLE2=Secret Place
TTITLE3=Wagons
TTITLE4=Wooden Ships
TTITLE5=Let You Go
TTITLE6=Today Eternal
TTITLE7=Love Incidence
TTITLE8=Crowns
TTITLE9=Other Summers
TTITLE10=Walk Cheerfully 
TTITLE11=Every Day Ever After
EXTD=
EXTT0=
EXTT1=
EXTT2=
EXTT3=
EXTT4=
EXTT5=
EXTT6=
EXTT7=
EXTT8=
EXTT9=
EXTT10=
EXTT11=
PLAYORDER=
